<svg width="657.8px" height="122px" xmlns="http://www.w3.org/2000/svg" viewBox="-78.88124999999997 14 657.7624999999999 122" style="background: rgba(0, 0, 0, 0)" preserveAspectRatio="xMidYMid"><defs><linearGradient id="editing-gradient-gradient" x1="0" x2="1" y1="0.5" y2="0.5" gradientUnits="objectBoundingBox"><stop offset="0" stop-color="#009cff"></stop><stop offset="1" stop-color="#a600ff"></stop></linearGradient></defs><g><g transform="matrix(1.3,0,0,1.3,-51.4,145.1)"><path d="M 9.3 -34.2 L -4.7 -34.2 L 3.5 -76.4 L 17.5 -76.4 L 9.3 -34.2 Z M 65 -32.9 L 65 -32.9 L 65 -32.9 Q 57.3 -32.9 57.3 -38.9 L 57.3 -38.9 L 57.3 -38.9 Q 57.3 -41.5 58.4 -46.6 L 58.4 -46.6 L 58.4 -46.6 Q 59.5 -51.7 59.9 -53.8 L 59.9 -53.8 L 59.9 -53.8 Q 60.8 -58.4 60.8 -59.9 L 60.8 -59.9 L 60.8 -59.9 Q 60.8 -63.2 58.4 -63.2 L 58.4 -63.2 L 58.4 -63.2 Q 56.8 -63.2 55.2 -61 L 55.2 -61 L 55.2 -61 Q 53.7 -58.8 53 -54.3 L 53 -54.3 L 49 -34.2 L 36.5 -32.9 L 40 -50.3 L 40 -50.3 Q 40.6 -53.2 41.1 -56.5 L 41.1 -56.5 L 41.1 -56.5 Q 41.6 -59.7 41.6 -60.2 L 41.6 -60.2 L 41.6 -60.2 Q 41.6 -63.2 39.4 -63.2 L 39.4 -63.2 L 39.4 -63.2 Q 38 -63.2 36.4 -61 L 36.4 -61 L 36.4 -61 Q 34.8 -58.8 33.9 -54.3 L 33.9 -54.3 L 30 -34.2 L 17.3 -32.9 L 24.1 -66.8 L 34.5 -68.1 L 33.4 -61.6 L 33.4 -61.6 Q 35.1 -65.1 38.1 -66.6 L 38.1 -66.6 L 38.1 -66.6 Q 41.2 -68.1 46 -68.1 L 46 -68.1 L 46 -68.1 Q 48.8 -68.1 50.6 -66.8 L 50.6 -66.8 L 50.6 -66.8 Q 52.4 -65.4 52.9 -63.2 L 52.9 -63.2 L 52.9 -63.2 Q 54 -65.5 56.8 -66.8 L 56.8 -66.8 L 56.8 -66.8 Q 59.6 -68.1 63 -68.1 L 63 -68.1 L 63 -68.1 Q 66.4 -68.1 68.1 -67.4 L 68.1 -67.4 L 68.1 -67.4 Q 69.8 -66.6 70.8 -65.4 L 70.8 -65.4 L 70.8 -65.4 Q 72.6 -63.2 72.6 -59.1 L 72.6 -59.1 L 72.6 -59.1 Q 72.6 -55 70.8 -46.7 L 70.8 -46.7 L 70.8 -46.7 Q 70 -42.6 70 -41.1 L 70 -41.1 L 70 -41.1 Q 70 -39.6 70.8 -38.7 L 70.8 -38.7 L 70.8 -38.7 Q 71.7 -37.8 73 -37.6 L 73 -37.6 L 73 -37.6 Q 72.3 -35.5 70.1 -34.2 L 70.1 -34.2 L 70.1 -34.2 Q 67.9 -32.9 65 -32.9 Z M 80.7 -36.1 L 80.7 -36.1 L 80.7 -36.1 Q 79.2 -37.8 78.5 -40.4 L 78.5 -40.4 L 78.5 -40.4 Q 77.8 -43 77.8 -47.3 L 77.8 -47.3 L 77.8 -47.3 Q 77.8 -51.6 79.3 -55.5 L 79.3 -55.5 L 79.3 -55.5 Q 80.8 -59.4 83.5 -62.2 L 83.5 -62.2 L 83.5 -62.2 Q 89 -68.1 98 -68.1 L 98 -68.1 L 98 -68.1 Q 101.3 -68.1 103.7 -67 L 103.7 -67 L 114.6 -68.1 L 109.9 -43.1 L 109.9 -43.1 Q 109.7 -42.4 109.7 -41 L 109.7 -41 L 109.7 -41 Q 109.7 -39.6 110.6 -38.7 L 110.6 -38.7 L 110.6 -38.7 Q 111.4 -37.8 112.7 -37.6 L 112.7 -37.6 L 112.7 -37.6 Q 112.1 -35.5 109.7 -34.2 L 109.7 -34.2 L 109.7 -34.2 Q 107.4 -32.9 104.8 -32.9 L 104.8 -32.9 L 104.8 -32.9 Q 102.1 -32.9 100.4 -33.9 L 100.4 -33.9 L 100.4 -33.9 Q 98.6 -34.9 98.1 -36.6 L 98.1 -36.6 L 98.1 -36.6 Q 97.1 -35 94.9 -33.9 L 94.9 -33.9 L 94.9 -33.9 Q 92.7 -32.9 89.8 -32.9 L 89.8 -32.9 L 89.8 -32.9 Q 86.9 -32.9 84.5 -33.7 L 84.5 -33.7 L 84.5 -33.7 Q 82.2 -34.4 80.7 -36.1 Z M 94.2 -62.1 L 94.2 -62.1 L 94.2 -62.1 Q 93.4 -60.9 92.8 -59 L 92.8 -59 L 92.8 -59 Q 92.2 -57 91.1 -51.8 L 91.1 -51.8 L 91.1 -51.8 Q 90 -46.6 90 -42.9 L 90 -42.9 L 90 -42.9 Q 90 -39.2 90.6 -38.1 L 90.6 -38.1 L 90.6 -38.1 Q 91.2 -37 92.2 -37 L 92.2 -37 L 92.2 -37 Q 94.3 -37 95.8 -39 L 95.8 -39 L 95.8 -39 Q 97.3 -40.9 97.9 -44.4 L 97.9 -44.4 L 101.2 -63.1 L 101.2 -63.1 Q 99.9 -64.3 98.3 -64.3 L 98.3 -64.3 L 98.3 -64.3 Q 96.8 -64.3 95.8 -63.8 L 95.8 -63.8 L 95.8 -63.8 Q 94.9 -63.2 94.2 -62.1 Z M 122.4 -60.9 L 122.4 -60.9 L 122.4 -60.9 Q 124.5 -64 127.8 -66.1 L 127.8 -66.1 L 127.8 -66.1 Q 131.1 -68.1 135.2 -68.1 L 135.2 -68.1 L 135.2 -68.1 Q 139.2 -68.1 141.1 -66.8 L 141.1 -66.8 L 153.7 -68.1 L 149.3 -43.5 L 149.3 -43.5 Q 147.1 -31 142.3 -26.1 L 142.3 -26.1 L 142.3 -26.1 Q 137.8 -21.4 129 -21.4 L 129 -21.4 L 129 -21.4 Q 122.2 -21.4 118.4 -23.5 L 118.4 -23.5 L 118.4 -23.5 Q 114.6 -25.6 114.6 -29.1 L 114.6 -29.1 L 114.6 -29.1 Q 114.6 -31.8 116.5 -33.3 L 116.5 -33.3 L 116.5 -33.3 Q 118.5 -34.8 121.6 -34.8 L 121.6 -34.8 L 121.6 -34.8 Q 124.3 -34.8 126.3 -33.5 L 126.3 -33.5 L 126.3 -33.5 Q 127.6 -32.9 128.1 -32 L 128.1 -32 L 128.1 -32 Q 126.7 -30.7 126.7 -28.6 L 126.7 -28.6 L 126.7 -28.6 Q 126.7 -25.9 129.2 -25.9 L 129.2 -25.9 L 129.2 -25.9 Q 133.5 -25.9 135.9 -36 L 135.9 -36 L 135.9 -36 Q 136.6 -38.7 137.2 -41.5 L 137.2 -41.5 L 137.2 -41.5 Q 134.3 -38 127.8 -38 L 127.8 -38 L 127.8 -38 Q 123.3 -38 120.6 -40.1 L 120.6 -40.1 L 120.6 -40.1 Q 118 -42.3 118 -47.4 L 118 -47.4 L 118 -47.4 Q 118 -50.6 119.1 -54.2 L 119.1 -54.2 L 119.1 -54.2 Q 120.2 -57.9 122.4 -60.9 Z M 130.7 -47.2 L 130.7 -47.2 L 130.7 -47.2 Q 130.7 -42.9 132.9 -42.9 L 132.9 -42.9 L 132.9 -42.9 Q 134.5 -42.9 135.9 -44.6 L 135.9 -44.6 L 135.9 -44.6 Q 137.1 -45.9 137.5 -47.9 L 137.5 -47.9 L 140.8 -64.3 L 140.8 -64.3 Q 140.5 -64.4 140.2 -64.5 L 140.2 -64.5 L 140.2 -64.5 Q 139.5 -64.8 138.7 -64.8 L 138.7 -64.8 L 138.7 -64.8 Q 134.8 -64.8 132.5 -58.4 L 132.5 -58.4 L 132.5 -58.4 Q 130.7 -53.4 130.7 -47.2 Z M 182.1 -45 L 182.1 -45 L 182.1 -45 Q 183.7 -43.9 183.7 -41.5 L 183.7 -41.5 L 183.7 -41.5 Q 183.7 -39.1 182.5 -37.6 L 182.5 -37.6 L 182.5 -37.6 Q 181.2 -36 179.3 -35 L 179.3 -35 L 179.3 -35 Q 175.2 -32.9 170.8 -32.9 L 170.8 -32.9 L 170.8 -32.9 Q 166.3 -32.9 163.7 -33.9 L 163.7 -33.9 L 163.7 -33.9 Q 161.2 -34.8 159.4 -36.6 L 159.4 -36.6 L 159.4 -36.6 Q 156 -40 156 -46.2 L 156 -46.2 L 156 -46.2 Q 156 -55.9 161.3 -61.8 L 161.3 -61.8 L 161.3 -61.8 Q 166.9 -68.1 176.7 -68.1 L 176.7 -68.1 L 176.7 -68.1 Q 182.8 -68.1 185.8 -65.5 L 185.8 -65.5 L 185.8 -65.5 Q 188 -63.6 188 -60.5 L 188 -60.5 L 188 -60.5 Q 188 -49.2 168.6 -49.2 L 168.6 -49.2 L 168.6 -49.2 Q 168.3 -47.6 168.3 -46.2 L 168.3 -46.2 L 168.3 -46.2 Q 168.3 -43.2 169.6 -42.1 L 169.6 -42.1 L 169.6 -42.1 Q 170.9 -41 173.4 -41 L 173.4 -41 L 173.4 -41 Q 175.8 -41 178.4 -42.1 L 178.4 -42.1 L 178.4 -42.1 Q 181 -43.2 182.1 -45 Z M 169 -52 L 169 -52 L 169 -52 Q 173.6 -52 176.2 -54.8 L 176.2 -54.8 L 176.2 -54.8 Q 178.8 -57.5 178.8 -61.8 L 178.8 -61.8 L 178.8 -61.8 Q 178.8 -63.2 178.3 -64 L 178.3 -64 L 178.3 -64 Q 177.7 -64.8 176.6 -64.8 L 176.6 -64.8 L 176.6 -64.8 Q 175.6 -64.8 174.6 -64.4 L 174.6 -64.4 L 174.6 -64.4 Q 173.7 -64 172.7 -62.6 L 172.7 -62.6 L 172.7 -62.6 Q 170.4 -59.4 169 -52 Z M 209.3 -56.6 L 209.3 -56.6 L 209.3 -56.6 Q 210.2 -59 210.2 -61.1 L 210.2 -61.1 L 210.2 -61.1 Q 210.2 -64.8 207.2 -64.8 L 207.2 -64.8 L 207.2 -64.8 Q 205.6 -64.8 204.3 -63.4 L 204.3 -63.4 L 204.3 -63.4 Q 202.9 -62 202.9 -60.2 L 202.9 -60.2 L 202.9 -60.2 Q 202.9 -58.9 204 -57.9 L 204 -57.9 L 204 -57.9 Q 205.4 -56.5 209.2 -54.2 L 209.2 -54.2 L 209.2 -54.2 Q 213 -51.8 214.4 -50 L 214.4 -50 L 214.4 -50 Q 215.9 -48.1 215.9 -45.5 L 215.9 -45.5 L 215.9 -45.5 Q 215.9 -42.9 214.6 -40.5 L 214.6 -40.5 L 214.6 -40.5 Q 213.4 -38.2 211.1 -36.5 L 211.1 -36.5 L 211.1 -36.5 Q 206.3 -32.9 198.7 -32.9 L 198.7 -32.9 L 198.7 -32.9 Q 194.5 -32.9 191.3 -35.1 L 191.3 -35.1 L 191.3 -35.1 Q 188.1 -37.2 188.1 -39.7 L 188.1 -39.7 L 188.1 -39.7 Q 188.1 -42.2 189.9 -43.7 L 189.9 -43.7 L 189.9 -43.7 Q 191.7 -45.1 194.4 -45.1 L 194.4 -45.1 L 194.4 -45.1 Q 197.1 -45.1 198.8 -44.1 L 198.8 -44.1 L 198.8 -44.1 Q 198 -42 198 -40.6 L 198 -40.6 L 198 -40.6 Q 198 -36.4 201.5 -36.4 L 201.5 -36.4 L 201.5 -36.4 Q 203.1 -36.4 204.1 -37.3 L 204.1 -37.3 L 204.1 -37.3 Q 205.1 -38.3 205.1 -39.9 L 205.1 -39.9 L 205.1 -39.9 Q 205.1 -43.2 199.6 -46.7 L 199.6 -46.7 L 199.6 -46.7 Q 195.1 -49.6 194.1 -50.8 L 194.1 -50.8 L 194.1 -50.8 Q 192.4 -52.8 192.4 -55.4 L 192.4 -55.4 L 192.4 -55.4 Q 192.4 -57.9 193.6 -60.4 L 193.6 -60.4 L 193.6 -60.4 Q 194.8 -62.8 197.1 -64.5 L 197.1 -64.5 L 197.1 -64.5 Q 201.7 -68.1 209.9 -68.1 L 209.9 -68.1 L 209.9 -68.1 Q 214 -68.1 216.5 -66.4 L 216.5 -66.4 L 216.5 -66.4 Q 218.9 -64.8 218.9 -62 L 218.9 -62 L 218.9 -62 Q 218.9 -59.1 217.2 -57.5 L 217.2 -57.5 L 217.2 -57.5 Q 215.6 -55.9 212.5 -55.9 L 212.5 -55.9 L 212.5 -55.9 Q 210.4 -55.9 209.3 -56.6 Z M 260.4 -54.8 L 273.3 -55.9 L 273.3 -55.9 Q 268.7 -45.8 268.7 -34.1 L 268.7 -34.1 L 268.7 -34.1 Q 267 -32.9 264.5 -32.9 L 264.5 -32.9 L 264.5 -32.9 Q 262 -32.9 260.4 -34.1 L 260.4 -34.1 L 260.4 -34.1 Q 258.8 -35.3 258.4 -36.5 L 258.4 -36.5 L 258.4 -36.5 Q 256.8 -34.8 254.2 -33.9 L 254.2 -33.9 L 254.2 -33.9 Q 251.6 -32.9 248.9 -32.9 L 248.9 -32.9 L 248.9 -32.9 Q 246.1 -32.9 243.7 -33.8 L 243.7 -33.8 L 243.7 -33.8 Q 241.3 -34.7 239.5 -36.7 L 239.5 -36.7 L 239.5 -36.7 Q 235.4 -41 235.4 -49.3 L 235.4 -49.3 L 235.4 -49.3 Q 235.4 -62.1 242.2 -69.8 L 242.2 -69.8 L 242.2 -69.8 Q 249.3 -77.7 261.8 -77.7 L 261.8 -77.7 L 261.8 -77.7 Q 270.4 -77.7 273.5 -73.2 L 273.5 -73.2 L 273.5 -73.2 Q 274.4 -71.8 274.4 -70.1 L 274.4 -70.1 L 274.4 -70.1 Q 274.4 -68.4 273.7 -67 L 273.7 -67 L 273.7 -67 Q 273 -65.5 271.8 -64.4 L 271.8 -64.4 L 271.8 -64.4 Q 269.1 -61.8 265.7 -61.8 L 265.7 -61.8 L 265.7 -61.8 Q 264.3 -61.8 263 -62.3 L 263 -62.3 L 263 -62.3 Q 263.3 -64.2 263.3 -66.4 L 263.3 -66.4 L 263.3 -66.4 Q 263.3 -68.7 263.1 -69.7 L 263.1 -69.7 L 263.1 -69.7 Q 263 -70.7 262.6 -71.6 L 262.6 -71.6 L 262.6 -71.6 Q 261.8 -73.3 259.9 -73.3 L 259.9 -73.3 L 259.9 -73.3 Q 258.1 -73.3 256.1 -71.3 L 256.1 -71.3 L 256.1 -71.3 Q 254.1 -69.4 252.5 -66.2 L 252.5 -66.2 L 252.5 -66.2 Q 249 -59 249 -50.4 L 249 -50.4 L 249 -50.4 Q 249 -46.4 250.5 -43.6 L 250.5 -43.6 L 250.5 -43.6 Q 252.2 -40.5 255.1 -40.5 L 255.1 -40.5 L 255.1 -40.5 Q 256.1 -40.5 257.1 -41 L 257.1 -41 L 257.1 -41 Q 258 -41.5 258.4 -41.9 L 258.4 -41.9 L 260.4 -54.8 Z M 279.3 -36.1 L 279.3 -36.1 L 279.3 -36.1 Q 277.8 -37.8 277.1 -40.4 L 277.1 -40.4 L 277.1 -40.4 Q 276.4 -43 276.4 -47.3 L 276.4 -47.3 L 276.4 -47.3 Q 276.4 -51.6 277.9 -55.5 L 277.9 -55.5 L 277.9 -55.5 Q 279.4 -59.4 282 -62.2 L 282 -62.2 L 282 -62.2 Q 287.6 -68.1 296.6 -68.1 L 296.6 -68.1 L 296.6 -68.1 Q 299.9 -68.1 302.3 -67 L 302.3 -67 L 313.2 -68.1 L 308.5 -43.1 L 308.5 -43.1 Q 308.3 -42.4 308.3 -41 L 308.3 -41 L 308.3 -41 Q 308.3 -39.6 309.2 -38.7 L 309.2 -38.7 L 309.2 -38.7 Q 310 -37.8 311.3 -37.6 L 311.3 -37.6 L 311.3 -37.6 Q 310.7 -35.5 308.3 -34.2 L 308.3 -34.2 L 308.3 -34.2 Q 306 -32.9 303.4 -32.9 L 303.4 -32.9 L 303.4 -32.9 Q 300.7 -32.9 299 -33.9 L 299 -33.9 L 299 -33.9 Q 297.2 -34.9 296.7 -36.6 L 296.7 -36.6 L 296.7 -36.6 Q 295.7 -35 293.5 -33.9 L 293.5 -33.9 L 293.5 -33.9 Q 291.3 -32.9 288.4 -32.9 L 288.4 -32.9 L 288.4 -32.9 Q 285.5 -32.9 283.1 -33.7 L 283.1 -33.7 L 283.1 -33.7 Q 280.8 -34.4 279.3 -36.1 Z M 292.8 -62.1 L 292.8 -62.1 L 292.8 -62.1 Q 292 -60.9 291.4 -59 L 291.4 -59 L 291.4 -59 Q 290.8 -57 289.7 -51.8 L 289.7 -51.8 L 289.7 -51.8 Q 288.6 -46.6 288.6 -42.9 L 288.6 -42.9 L 288.6 -42.9 Q 288.6 -39.2 289.2 -38.1 L 289.2 -38.1 L 289.2 -38.1 Q 289.8 -37 290.8 -37 L 290.8 -37 L 290.8 -37 Q 292.9 -37 294.4 -39 L 294.4 -39 L 294.4 -39 Q 295.9 -40.9 296.4 -44.4 L 296.4 -44.4 L 299.8 -63.1 L 299.8 -63.1 Q 298.5 -64.3 296.9 -64.3 L 296.9 -64.3 L 296.9 -64.3 Q 295.4 -64.3 294.4 -63.8 L 294.4 -63.8 L 294.4 -63.8 Q 293.5 -63.2 292.8 -62.1 Z M 332 -37.7 L 332 -37.7 L 332 -37.7 Q 330 -32.9 323.6 -32.9 L 323.6 -32.9 L 323.6 -32.9 Q 320.4 -32.9 318.4 -35.1 L 318.4 -35.1 L 318.4 -35.1 Q 316.7 -37 316.7 -39.1 L 316.7 -39.1 L 316.7 -39.1 Q 316.7 -43.9 319 -54.4 L 319 -54.4 L 323.6 -79 L 336.6 -80.3 L 330.4 -47.9 L 330.4 -47.9 Q 329.3 -43.1 329.3 -41.5 L 329.3 -41.5 L 329.3 -41.5 Q 329.3 -37.8 332 -37.7 Z M 352.7 -37.7 L 352.7 -37.7 L 352.7 -37.7 Q 350.7 -32.9 344.4 -32.9 L 344.4 -32.9 L 344.4 -32.9 Q 341.2 -32.9 339.1 -35.1 L 339.1 -35.1 L 339.1 -35.1 Q 337.5 -37 337.5 -39.1 L 337.5 -39.1 L 337.5 -39.1 Q 337.5 -43.9 339.7 -54.4 L 339.7 -54.4 L 344.4 -79 L 357.4 -80.3 L 351.2 -47.9 L 351.2 -47.9 Q 350.1 -43.1 350.1 -41.5 L 350.1 -41.5 L 350.1 -41.5 Q 350.1 -37.8 352.7 -37.7 Z M 384.1 -45 L 384.1 -45 L 384.1 -45 Q 385.7 -43.9 385.7 -41.5 L 385.7 -41.5 L 385.7 -41.5 Q 385.7 -39.1 384.4 -37.6 L 384.4 -37.6 L 384.4 -37.6 Q 383.2 -36 381.2 -35 L 381.2 -35 L 381.2 -35 Q 377.2 -32.9 372.7 -32.9 L 372.7 -32.9 L 372.7 -32.9 Q 368.3 -32.9 365.7 -33.9 L 365.7 -33.9 L 365.7 -33.9 Q 363.1 -34.8 361.4 -36.6 L 361.4 -36.6 L 361.4 -36.6 Q 358 -40 358 -46.2 L 358 -46.2 L 358 -46.2 Q 358 -55.9 363.3 -61.8 L 363.3 -61.8 L 363.3 -61.8 Q 368.9 -68.1 378.7 -68.1 L 378.7 -68.1 L 378.7 -68.1 Q 384.8 -68.1 387.8 -65.5 L 387.8 -65.5 L 387.8 -65.5 Q 390 -63.6 390 -60.5 L 390 -60.5 L 390 -60.5 Q 390 -49.2 370.6 -49.2 L 370.6 -49.2 L 370.6 -49.2 Q 370.3 -47.6 370.3 -46.2 L 370.3 -46.2 L 370.3 -46.2 Q 370.3 -43.2 371.6 -42.1 L 371.6 -42.1 L 371.6 -42.1 Q 372.9 -41 375.4 -41 L 375.4 -41 L 375.4 -41 Q 377.8 -41 380.4 -42.1 L 380.4 -42.1 L 380.4 -42.1 Q 383 -43.2 384.1 -45 Z M 371 -52 L 371 -52 L 371 -52 Q 375.6 -52 378.2 -54.8 L 378.2 -54.8 L 378.2 -54.8 Q 380.8 -57.5 380.8 -61.8 L 380.8 -61.8 L 380.8 -61.8 Q 380.8 -63.2 380.3 -64 L 380.3 -64 L 380.3 -64 Q 379.7 -64.8 378.6 -64.8 L 378.6 -64.8 L 378.6 -64.8 Q 377.5 -64.8 376.6 -64.4 L 376.6 -64.4 L 376.6 -64.4 Q 375.7 -64 374.7 -62.6 L 374.7 -62.6 L 374.7 -62.6 Q 372.4 -59.4 371 -52 Z M 412.2 -52.2 L 412.2 -52.2 L 412.2 -52.2 Q 414.5 -56.3 414.5 -60.4 L 414.5 -60.4 L 414.5 -60.4 Q 414.5 -63.2 412.5 -63.2 L 412.5 -63.2 L 412.5 -63.2 Q 411 -63.2 409.4 -60.6 L 409.4 -60.6 L 409.4 -60.6 Q 407.7 -57.9 407.2 -54.5 L 407.2 -54.5 L 403.9 -34.2 L 390.7 -32.9 L 397.2 -66.8 L 407.7 -68.1 L 406.6 -61.6 L 406.6 -61.6 Q 409.7 -68.1 416.8 -68.1 L 416.8 -68.1 L 416.8 -68.1 Q 420.5 -68.1 422.5 -66.2 L 422.5 -66.2 L 422.5 -66.2 Q 424.5 -64.3 424.5 -60.3 L 424.5 -60.3 L 424.5 -60.3 Q 424.5 -56.4 421.9 -53.9 L 421.9 -53.9 L 421.9 -53.9 Q 419.3 -51.4 414.9 -51.4 L 414.9 -51.4 L 414.9 -51.4 Q 413 -51.4 412.2 -52.2 Z M 445.9 -41.4 L 445.9 -41.4 L 445.9 -41.4 Q 442.6 -38 436.5 -38 L 436.5 -38 L 436.5 -38 Q 428.9 -38 427.3 -43.5 L 427.3 -43.5 L 427.3 -43.5 Q 426.8 -45.2 426.8 -47 L 426.8 -47 L 426.8 -47 Q 426.8 -48.9 427.1 -50.8 L 427.1 -50.8 L 430.1 -66.8 L 443.1 -68.1 L 439.6 -49.5 L 439.6 -49.5 Q 439.5 -48.6 439.3 -47.8 L 439.3 -47.8 L 439.3 -47.8 Q 439.1 -46.9 439.1 -45.9 L 439.1 -45.9 L 439.1 -45.9 Q 439.1 -45 439.4 -44.4 L 439.4 -44.4 L 439.4 -44.4 Q 439.7 -43.8 440.2 -43.4 L 440.2 -43.4 L 440.2 -43.4 Q 441 -42.9 442.3 -42.9 L 442.3 -42.9 L 442.3 -42.9 Q 443.7 -42.9 444.9 -44.6 L 444.9 -44.6 L 444.9 -44.6 Q 446.1 -46.2 446.7 -49.1 L 446.7 -49.1 L 450.2 -66.8 L 462.8 -68.1 L 458 -43 L 458 -43 Q 455.6 -30.7 450.8 -25.8 L 450.8 -25.8 L 450.8 -25.8 Q 448.3 -23.3 445 -22.3 L 445 -22.3 L 445 -22.3 Q 441.8 -21.3 437.6 -21.3 L 437.6 -21.3 L 437.6 -21.3 Q 430.9 -21.3 427.1 -23.4 L 427.1 -23.4 L 427.1 -23.4 Q 423.2 -25.5 423.2 -29.1 L 423.2 -29.1 L 423.2 -29.1 Q 423.2 -31.7 425.2 -33.2 L 425.2 -33.2 L 425.2 -33.2 Q 427.2 -34.7 430.3 -34.7 L 430.3 -34.7 L 430.3 -34.7 Q 433 -34.7 435 -33.5 L 435 -33.5 L 435 -33.5 Q 436.2 -32.8 436.8 -31.9 L 436.8 -31.9 L 436.8 -31.9 Q 435.3 -30.7 435.3 -28.6 L 435.3 -28.6 L 435.3 -28.6 Q 435.3 -25.7 437.9 -25.7 L 437.9 -25.7 L 437.9 -25.7 Q 442.1 -25.7 444.5 -35.5 L 444.5 -35.5 L 444.5 -35.5 Q 445.2 -38.3 445.9 -41.4 Z" fill="url(#editing-gradient-gradient)"></path></g></g><style>text {
  font-size: 64px;
  font-family: Arial Black;
  dominant-baseline: central;
  text-anchor: middle;
}</style></svg>